<svg id="Layer_1" data-name="Layer 1" xmlns="http://www.w3.org/2000/svg" viewBox="0 0 1920 197.06">
  <defs>
    <style>
      .cls-1 {
        fill: #fff;
      }

      .cls-2 {
        fill: none;
      }

      .cls-3 {
        fill: #fcef00;
      }
    </style>
  </defs>
  <title>tqf-logo</title>
  <g>
    <g>
      <path class="cls-1" d="M1480.05,181.28h-34.8V3.76h112.18v32.8h-77.62V80.38h69.1v31.8h-68.86Z"/>
      <path class="cls-1" d="M1919.75,3.76l-58.09,88.88L1920,181.28h-41.81l-38.32-61.34-38.56,61.34h-40.56l58.34-88.88L1761,3.76h41.57l38.06,61.34,38.81-61.34Z"/>
      <g>
        <path class="cls-2" d="M1665.35,33.3a55.11,55.11,0,0,0-38.81,15.4Q1610,64.1,1610,92.4t16.53,43.69a56.92,56.92,0,0,0,77.87,0q16.53-15.41,16.53-43.69c0-.37,0-.73,0-1.09l-48.23-57.57A63.18,63.18,0,0,0,1665.35,33.3Z"/>
        <path class="cls-3" d="M1720.92,91.31c0,.36,0,.72,0,1.09q0,28.29-16.53,43.69a56.92,56.92,0,0,1-77.87,0Q1610,120.68,1610,92.4t16.53-43.7a55.11,55.11,0,0,1,38.81-15.4,63.18,63.18,0,0,1,7.34.44L1646,1.86q-25.37,5-45,23.68-26.8,25.55-26.8,67.1,0,41.33,26.8,66.86T1665.35,185q37.8,0,64.6-25.54a83,83,0,0,0,21.11-32.22Z"/>
        <path class="cls-1" d="M1681.94,67.64q12,18.63,39,23.81l30,36.06a101.2,101.2,0,0,1-35.1-.56q-40.91-7.38-61.28-38.29T1641,20.55a99.13,99.13,0,0,1,5.27-18.73l26.63,32A55.1,55.1,0,0,0,1681.94,67.64Z"/>
      </g>
    </g>
    <g>
      <path class="cls-1" d="M555.61,92.64q0-41.55,26.8-67.1T646.76,0q37.8,0,64.6,25.54t26.79,67.1q0,36.31-21.78,61.35l21.28,23.54-22.79,19.53-21.78-24a92.65,92.65,0,0,1-46.32,12q-37.56,0-64.35-25.54T555.61,92.64ZM607.94,48.7q-16.52,15.4-16.52,43.7t16.52,43.69a55.13,55.13,0,0,0,38.82,15.4A57.14,57.14,0,0,0,669.54,147l-27.79-30.55,23-19.78,27.8,31.05q9.76-14.78,9.76-35.3,0-28.31-16.52-43.7a56.93,56.93,0,0,0-77.88,0Z"/>
      <path class="cls-1" d="M834.55,185.29q-29.55,0-48.83-17.65t-19.28-49.2V3.76H801V115.93q0,17.28,8.89,26.42t24.66,9.14q16,0,24.91-9.14t8.89-26.42V3.76h34.56V118.44q0,31.55-19.28,49.2T834.55,185.29Z"/>
      <path class="cls-1" d="M1097.71,185q-38.31,0-64.6-25.54t-26.29-66.86q0-41.06,26.66-66.85T1097.21,0q34.05,0,54.71,17.28t26.67,41.56L1146,69.11a48.45,48.45,0,0,0-15.77-25.42q-12-10.38-33-10.39-21.8,0-38.19,15.53t-16.4,43.81q0,27,16.15,42.82a53.71,53.71,0,0,0,38.94,15.78q20.77,0,33.17-10.77a52.71,52.71,0,0,0,16.66-25.54l32.3,9.77a79.34,79.34,0,0,1-8.89,21,87.08,87.08,0,0,1-15.9,19.28q-9.77,9-24.67,14.52A93.57,93.57,0,0,1,1097.71,185Z"/>
      <path class="cls-1" d="M1316.8,181.28l-51.58-73.61-22,24.29v49.32h-34.55V3.76h34.55V84.13L1314.3,3.76h45.32l-70.36,77.37,70.86,100.15Z"/>
      <g>
        <path class="cls-3" d="M976.77,148.9h-35V3.33h35Z"/>
        <polygon class="cls-1" points="922.98 106.96 958.04 106.96 976.82 148.9 941.76 148.9 922.98 106.96"/>
      </g>
    </g>
    <g>
      <path class="cls-1" d="M147,36.56H90.89V181.28H56.09V36.56H0V3.76H147Z"/>
      <path class="cls-1" d="M318,181.28H283.19V107.67H205.82v73.61H171.27V3.76h34.55V75.12h77.37V3.76H318Z"/>
      <polygon class="cls-1" points="465.56 36.31 465.6 3.76 358.56 3.76 358.56 181.28 469.73 181.28 469.73 148.74 393.11 148.74 393.11 107.67 462.47 107.67 462.47 76.87 393.11 76.87 393.11 36.31 465.56 36.31"/>
    </g>
  </g>
</svg>
